<mxfile host="65bd71144e">
    <diagram id="CgabPHJHviiX4fwv1oWU" name="Page-1">
        <mxGraphModel dx="832" dy="368" grid="1" gridSize="10" guides="1" tooltips="1" connect="1" arrows="1" fold="1" page="1" pageScale="1" pageWidth="850" pageHeight="1100" math="0" shadow="0">
            <root>
                <mxCell id="0"/>
                <mxCell id="1" parent="0"/>
                <mxCell id="4" value="" style="edgeStyle=none;html=1;" parent="1" source="2" target="3" edge="1">
                    <mxGeometry relative="1" as="geometry"/>
                </mxCell>
                <mxCell id="2" value="Start" style="strokeWidth=2;html=1;shape=mxgraph.flowchart.terminator;whiteSpace=wrap;fillColor=#f8cecc;strokeColor=#b85450;" parent="1" vertex="1">
                    <mxGeometry x="320" y="80" width="150" height="60" as="geometry"/>
                </mxCell>
                <mxCell id="6" value="" style="edgeStyle=none;html=1;" parent="1" source="3" edge="1">
                    <mxGeometry relative="1" as="geometry">
                        <mxPoint x="395" y="280" as="targetPoint"/>
                    </mxGeometry>
                </mxCell>
                <mxCell id="3" value="input age" style="strokeWidth=2;html=1;shape=mxgraph.flowchart.display;whiteSpace=wrap;fillColor=#e1d5e7;strokeColor=#9673a6;" parent="1" vertex="1">
                    <mxGeometry x="327.5" y="170" width="135" height="60" as="geometry"/>
                </mxCell>
                <mxCell id="12" value="" style="edgeStyle=none;html=1;" parent="1" source="9" edge="1">
                    <mxGeometry relative="1" as="geometry">
                        <mxPoint x="395.5952380952381" y="500" as="targetPoint"/>
                    </mxGeometry>
                </mxCell>
                <mxCell id="9" value="age &amp;gt;= 18" style="strokeWidth=2;html=1;shape=mxgraph.flowchart.decision;whiteSpace=wrap;fillColor=#d5e8d4;strokeColor=#82b366;" parent="1" vertex="1">
                    <mxGeometry x="332.5" y="370" width="130" height="100" as="geometry"/>
                </mxCell>
                <mxCell id="14" value="" style="edgeStyle=none;html=1;" parent="1" edge="1">
                    <mxGeometry relative="1" as="geometry">
                        <mxPoint x="395" y="550" as="sourcePoint"/>
                        <mxPoint x="395" y="620" as="targetPoint"/>
                    </mxGeometry>
                </mxCell>
                <mxCell id="13" value="End" style="strokeWidth=2;html=1;shape=mxgraph.flowchart.terminator;whiteSpace=wrap;fillColor=#f8cecc;strokeColor=#b85450;" parent="1" vertex="1">
                    <mxGeometry x="320" y="680" width="150" height="60" as="geometry"/>
                </mxCell>
                <mxCell id="16" value="" style="edgeStyle=none;html=1;" edge="1" parent="1" source="15" target="9">
                    <mxGeometry relative="1" as="geometry"/>
                </mxCell>
                <mxCell id="15" value="input age" style="html=1;strokeWidth=2;shape=manualInput;whiteSpace=wrap;rounded=1;size=26;arcSize=11;fillColor=#fff2cc;strokeColor=#d6b656;" vertex="1" parent="1">
                    <mxGeometry x="345" y="270" width="100" height="60" as="geometry"/>
                </mxCell>
                <mxCell id="17" value="&quot;You are an adult&quot;" style="strokeWidth=2;html=1;shape=mxgraph.flowchart.display;whiteSpace=wrap;fillColor=#e1d5e7;strokeColor=#9673a6;" vertex="1" parent="1">
                    <mxGeometry x="327.5" y="500" width="135" height="60" as="geometry"/>
                </mxCell>
                <mxCell id="30" value="" style="edgeStyle=none;html=1;" edge="1" parent="1" source="20" target="13">
                    <mxGeometry relative="1" as="geometry"/>
                </mxCell>
                <mxCell id="20" value="" style="verticalLabelPosition=bottom;verticalAlign=top;html=1;shape=mxgraph.flowchart.on-page_reference;" vertex="1" parent="1">
                    <mxGeometry x="390" y="620" width="10" height="10" as="geometry"/>
                </mxCell>
                <mxCell id="47" value="" style="endArrow=none;html=1;" edge="1" parent="1">
                    <mxGeometry width="50" height="50" relative="1" as="geometry">
                        <mxPoint x="462.5" y="420" as="sourcePoint"/>
                        <mxPoint x="650" y="420" as="targetPoint"/>
                    </mxGeometry>
                </mxCell>
                <mxCell id="48" value="" style="endArrow=none;html=1;" edge="1" parent="1">
                    <mxGeometry width="50" height="50" relative="1" as="geometry">
                        <mxPoint x="650" y="420" as="sourcePoint"/>
                        <mxPoint x="650" y="630" as="targetPoint"/>
                    </mxGeometry>
                </mxCell>
                <mxCell id="49" value="" style="endArrow=classic;html=1;entryX=1;entryY=0.5;entryDx=0;entryDy=0;entryPerimeter=0;" edge="1" parent="1" target="20">
                    <mxGeometry width="50" height="50" relative="1" as="geometry">
                        <mxPoint x="650" y="630" as="sourcePoint"/>
                        <mxPoint x="460" y="630" as="targetPoint"/>
                    </mxGeometry>
                </mxCell>
                <mxCell id="50" value="no" style="text;html=1;align=center;verticalAlign=middle;whiteSpace=wrap;rounded=0;" vertex="1" parent="1">
                    <mxGeometry x="590" y="390" width="60" height="30" as="geometry"/>
                </mxCell>
                <mxCell id="51" value="yes" style="text;html=1;align=center;verticalAlign=middle;whiteSpace=wrap;rounded=0;" vertex="1" parent="1">
                    <mxGeometry x="327.5" y="470" width="60" height="30" as="geometry"/>
                </mxCell>
            </root>
        </mxGraphModel>
    </diagram>
</mxfile>